<svg width="32" height="32" viewBox="0 0 32 32" fill="none" xmlns="http://www.w3.org/2000/svg">
<rect width="32" height="32" fill="#EEEEEE"/>
<path d="M22.6465 17.1878C22.5761 15.3163 22.2947 13.4448 22.2947 11.5734C22.2947 10.0485 22.5761 8.45424 22.0133 6.99865C22.0133 6.86002 22.0836 6.65208 22.0836 6.51345C22.2243 5.751 19.7617 6.16689 19.4099 6.86002C19.1988 7.06796 19.0581 7.27591 19.1285 7.55316C19.1285 7.62247 19.1988 7.69179 19.1988 7.7611C18.7063 9.97914 18.0731 12.1972 17.3695 14.3459C17.088 15.1777 16.7362 16.0094 16.4548 16.8412C16.0326 16.0787 15.6105 15.3163 15.2587 14.4845C14.2736 12.0585 13.4293 9.63257 12.2332 7.34522C12.3739 6.30551 9.98165 6.37483 9.48913 7.34522C8.92625 8.52355 8.99661 9.70188 9.20769 11.0188C9.41877 12.4744 9.48913 13.8607 9.48913 15.3163C9.48913 18.0888 9.77057 20.8614 9.77057 23.6339C9.48913 23.9112 9.41877 24.2578 9.70021 24.6043C9.84093 24.7429 9.98165 24.8816 10.1224 25.0202C10.7556 25.5054 12.585 25.0895 12.585 24.1191C12.585 21.208 12.3739 18.3661 12.3035 15.4549C12.3035 15.1777 12.3035 14.9004 12.3035 14.6232C12.3739 14.6925 12.3739 14.8311 12.4443 14.9004C12.8664 16.0094 13.3589 17.1184 13.9922 18.1582C14.6254 19.1979 14.9069 20.3069 15.2587 21.4159C15.118 21.5545 15.0476 21.7625 15.118 21.9011C15.118 22.0397 15.1883 22.109 15.329 22.1783C15.7512 22.5942 16.6659 22.3863 17.088 22.1783C17.2991 22.109 17.5102 21.9704 17.6509 21.9011C17.862 21.7625 18.2842 21.4159 18.1434 21.0693C18.1434 21 18.0731 20.9307 18.0731 20.8614C18.4249 19.9603 18.5656 19.0592 18.7767 18.0888C18.9878 17.1184 19.3396 16.1481 19.6914 15.1777C19.7617 15.5935 19.7617 16.0787 19.8321 16.4946C19.9728 18.2968 19.8321 20.0296 19.8321 21.8318C19.8321 22.4556 19.9024 22.9408 19.9728 23.5646C20.0432 23.7726 20.2543 24.8123 20.1839 24.8816C19.7617 25.2975 19.9024 25.7827 20.4653 25.852C21.0986 25.9906 21.9429 25.7827 22.4354 25.3668C23.2797 24.6043 22.8576 23.3567 22.7169 22.3863C22.2947 20.7228 22.6465 18.8513 22.6465 17.1878Z" fill="black"/>
</svg>
